<svg xmlns="http://www.w3.org/2000/svg" width="1080" height="340" fill="none"><mask id="a" width="1080" height="340" x="0" y="0" maskUnits="userSpaceOnUse" style="mask-type:alpha"><path fill="#F1F6FF" d="M0 0h1080v340H0z"/></mask><g mask="url(#a)"><g filter="url(#b)"><ellipse cx="1020" cy="286.5" fill="#0344DC" rx="155" ry="138.5"/></g><g filter="url(#c)"><ellipse cx="769" cy="356.5" fill="#FF37BB" rx="155" ry="138.5"/></g><g filter="url(#d)"><circle cx="1005.49" cy="340.49" r="48.49" fill="#01203F"/></g><mask id="f" width="797" height="340" x="283" y="0" maskUnits="userSpaceOnUse" style="mask-type:alpha"><path fill="url(#e)" d="M283 0h797v340H283z"/></mask><g stroke="#fff" stroke-width=".5" mask="url(#f)" opacity=".2"><path d="M396.76 3.667h122.666M396.76 19h122.666M396.76 34.333h122.666M396.76-27v61.333M412.093-27v61.333M427.427-27v61.333M442.76-27v61.333M458.093-27v61.333M473.427-27v61.333M488.76-27v61.333M504.093-27v61.333M519.427-27v61.333m-122.667.001h122.666M396.76 49.667h122.666M396.76 65h122.666M396.76 80.334h122.666M396.76 95.667h122.666M396.76 34.334v61.333m15.333-61.333v61.333m15.334-61.333v61.333m15.333-61.333v61.333m15.333-61.333v61.333m15.334-61.333v61.333m15.333-61.333v61.333m15.333-61.333v61.333m15.334-61.333v61.333m-122.667-.001h122.666M396.76 111h122.666M396.76 126.333h122.666M396.76 141.666h122.666M396.76 157h122.666M396.76 95.666V157m15.333-61.334V157m15.334-61.334V157m15.333-61.334V157m15.333-61.334V157m15.334-61.334V157m15.333-61.334V157m15.333-61.334V157m15.334-61.334V157m-122.667 0h122.666M396.76 172.333h122.666M396.76 187.667h122.666M396.76 203h122.666M396.76 218.333h122.666M396.76 157v61.333M412.093 157v61.333M427.427 157v61.333M442.76 157v61.333M458.093 157v61.333M473.427 157v61.333M488.76 157v61.333M504.093 157v61.333M519.427 157v61.333m-122.667.001h122.666M396.76 233.667h122.666M396.76 249h122.666M396.76 264.333h122.666M396.76 279.667h122.666M396.76 218.334v61.333m15.333-61.334v61.334m15.334-61.334v61.334m15.333-61.334v61.334m15.333-61.334v61.334m15.334-61.334v61.334m15.333-61.334v61.334m15.333-61.334v61.334m15.334-61.334v61.334m-122.667-.001h122.666M396.76 295h122.666M396.76 310.333h122.666M396.76 325.667h122.666M396.76 279.666V341m15.333-61.333V341m15.334-61.333V341m15.333-61.333V341m15.333-61.333V341m15.334-61.333V341m15.333-61.333V341m15.333-61.333V341m15.334-61.333V341m0-337.333h122.666M519.427 19h122.666M519.427 34.333h122.666M519.427-27v61.333M534.76-27v61.333M550.094-27v61.333M565.427-27v61.333M580.76-27v61.333M596.094-27v61.333M611.427-27v61.333M626.76-27v61.333M642.094-27v61.333m-122.667.001h122.666M519.427 49.667h122.666M519.427 65h122.666M519.427 80.334h122.666M519.427 95.667h122.666M519.427 34.334v61.333m15.333-61.333v61.333m15.334-61.333v61.333m15.333-61.333v61.333m15.333-61.333v61.333m15.334-61.333v61.333m15.333-61.333v61.333m15.333-61.333v61.333m15.334-61.333v61.333m-122.667-.001h122.666M519.427 111h122.666m-122.666 15.333h122.666m-122.666 15.333h122.666M519.427 157h122.666M519.427 95.666V157m15.333-61.334V157m15.334-61.334V157m15.333-61.334V157m15.333-61.334V157m15.334-61.334V157m15.333-61.334V157m15.333-61.334V157m15.334-61.334V157m-122.667 0h122.666m-122.666 15.333h122.666m-122.666 15.334h122.666M519.427 203h122.666m-122.666 15.333h122.666M519.427 157v61.333M534.76 157v61.333M550.094 157v61.333M565.427 157v61.333M580.76 157v61.333M596.094 157v61.333M611.427 157v61.333M626.76 157v61.333M642.094 157v61.333m-122.667.001h122.666m-122.666 15.333h122.666M519.427 249h122.666m-122.666 15.333h122.666m-122.666 15.334h122.666m-122.666-61.333v61.333m15.333-61.334v61.334m15.334-61.334v61.334m15.333-61.334v61.334m15.333-61.334v61.334m15.334-61.334v61.334m15.333-61.334v61.334m15.333-61.334v61.334m15.334-61.334v61.334m-122.667-.001h122.666M519.427 295h122.666m-122.666 15.333h122.666m-122.666 15.334h122.666m-122.666-46.001V341m15.333-61.333V341m15.334-61.333V341m15.333-61.333V341m15.333-61.333V341m15.334-61.333V341m15.333-61.333V341m15.333-61.333V341m15.334-61.333V341m-.001-337.333h122.666M642.093 19h122.666M642.093 34.333h122.666M642.093-27v61.333M657.426-27v61.333M672.76-27v61.333M688.093-27v61.333M703.425-27v61.333M718.76-27v61.333M734.093-27v61.333M749.426-27v61.333M764.76-27v61.333m-122.667.001h122.666M642.093 49.667h122.666M642.093 65h122.666M642.093 80.334h122.666M642.093 95.667h122.666M642.093 34.334v61.333m15.333-61.333v61.333m15.334-61.333v61.333m15.333-61.333v61.333m15.332-61.333v61.333m15.335-61.333v61.333m15.333-61.333v61.333m15.333-61.333v61.333m15.334-61.333v61.333m-122.667-.001h122.666M642.093 111h122.666m-122.666 15.333h122.666m-122.666 15.333h122.666M642.093 157h122.666M642.093 95.666V157m15.333-61.334V157m15.334-61.334V157m15.333-61.334V157m15.332-61.334V157m15.335-61.334V157m15.333-61.334V157m15.333-61.334V157m15.334-61.334V157m-122.667 0h122.666m-122.666 15.333h122.666m-122.666 15.334h122.666M642.093 203h122.666m-122.666 15.333h122.666M642.093 157v61.333M657.426 157v61.333M672.76 157v61.333M688.093 157v61.333M703.425 157v61.333M718.76 157v61.333M734.093 157v61.333M749.426 157v61.333M764.76 157v61.333m-122.667.001h122.666m-122.666 15.333h122.666M642.093 249h122.666m-122.666 15.333h122.666m-122.666 15.334h122.666m-122.666-61.333v61.333m15.333-61.334v61.334m15.334-61.334v61.334m15.333-61.334v61.334m15.332-61.334v61.334m15.335-61.334v61.334m15.333-61.334v61.334m15.333-61.334v61.334m15.334-61.334v61.334m-122.667-.001h122.666M642.093 295h122.666m-122.666 15.333h122.666m-122.666 15.334h122.666m-122.666-46.001V341m15.333-61.333V341m15.334-61.333V341m15.333-61.333V341m15.332-61.333V341m15.335-61.333V341m15.333-61.333V341m15.333-61.333V341m15.334-61.333V341m0-337.333h122.666M764.76 19h122.666M764.76 34.333h122.666M764.76-27v61.333M780.093-27v61.333M795.427-27v61.333M810.76-27v61.333M826.093-27v61.333M841.427-27v61.333M856.76-27v61.333M872.093-27v61.333M887.427-27v61.333m-122.667.001h122.666M764.76 49.667h122.666M764.76 65h122.666M764.76 80.334h122.666M764.76 95.667h122.666M764.76 34.334v61.333m15.333-61.333v61.333m15.334-61.333v61.333m15.333-61.333v61.333m15.333-61.333v61.333m15.334-61.333v61.333m15.333-61.333v61.333m15.333-61.333v61.333m15.334-61.333v61.333m-122.667-.001h122.666M764.76 111h122.666M764.76 126.333h122.666M764.76 141.666h122.666M764.76 157h122.666M764.76 95.666V157m15.333-61.334V157m15.334-61.334V157m15.333-61.334V157m15.333-61.334V157m15.334-61.334V157m15.333-61.334V157m15.333-61.334V157m15.334-61.334V157m-122.667 0h122.666M764.76 172.333h122.666M764.76 187.667h122.666M764.76 203h122.666M764.76 218.333h122.666M764.76 157v61.333M780.093 157v61.333M795.427 157v61.333M810.76 157v61.333M826.093 157v61.333M841.427 157v61.333M856.76 157v61.333M872.093 157v61.333M887.427 157v61.333m-122.667.001h122.666M764.76 233.667h122.666M764.76 249h122.666M764.76 264.333h122.666M764.76 279.667h122.666M764.76 218.334v61.333m15.333-61.334v61.334m15.334-61.334v61.334m15.333-61.334v61.334m15.333-61.334v61.334m15.334-61.334v61.334m15.333-61.334v61.334m15.333-61.334v61.334m15.334-61.334v61.334m-122.667-.001h122.666M764.76 295h122.666M764.76 310.333h122.666M764.76 325.667h122.666M764.76 279.666V341m15.333-61.333V341m15.334-61.333V341m15.333-61.333V341m15.333-61.333V341m15.334-61.333V341m15.333-61.333V341m15.333-61.333V341m15.334-61.333V341m0-337.333h122.663M887.427 19h122.663M887.427 34.333h122.663M887.427-27v61.333M902.76-27v61.333M918.094-27v61.333M933.427-27v61.333M948.76-27v61.333M964.094-27v61.333M979.427-27v61.333M994.76-27v61.333M1010.09-27v61.333m-122.663.001h122.663M887.427 49.667h122.663M887.427 65h122.663M887.427 80.334h122.663M887.427 95.667h122.663M887.427 34.334v61.333m15.333-61.333v61.333m15.334-61.333v61.333m15.333-61.333v61.333m15.333-61.333v61.333m15.334-61.333v61.333m15.333-61.333v61.333m15.333-61.333v61.333m15.33-61.333v61.333m-122.663-.001h122.663M887.427 111h122.663m-122.663 15.333h122.663m-122.663 15.333h122.663M887.427 157h122.663M887.427 95.666V157m15.333-61.334V157m15.334-61.334V157m15.333-61.334V157m15.333-61.334V157m15.334-61.334V157m15.333-61.334V157m15.333-61.334V157m15.33-61.334V157m-122.663 0h122.663m-122.663 15.333h122.663m-122.663 15.334h122.663M887.427 203h122.663m-122.663 15.333h122.663M887.427 157v61.333M902.76 157v61.333M918.094 157v61.333M933.427 157v61.333M948.76 157v61.333M964.094 157v61.333M979.427 157v61.333M994.76 157v61.333M1010.09 157v61.333m-122.663.001h122.663m-122.663 15.333h122.663M887.427 249h122.663m-122.663 15.333h122.663m-122.663 15.334h122.663m-122.663-61.333v61.333m15.333-61.334v61.334m15.334-61.334v61.334m15.333-61.334v61.334m15.333-61.334v61.334m15.334-61.334v61.334m15.333-61.334v61.334m15.333-61.334v61.334m15.33-61.334v61.334m-122.663-.001h122.663M887.427 295h122.663m-122.663 15.333h122.663m-122.663 15.334h122.663m-122.663-46.001V341m15.333-61.333V341m15.334-61.333V341m15.333-61.333V341m15.333-61.333V341m15.334-61.333V341m15.333-61.333V341m15.333-61.333V341m15.33-61.333V341m0-337.333h122.67M1010.09 19h122.67m-122.67 15.333h122.67M1010.09-27v61.333M1025.43-27v61.333M1040.76-27v61.333M1056.09-27v61.333M1071.43-27v61.333m-61.34.001h122.67m-122.67 15.333h122.67M1010.09 65h122.67m-122.67 15.334h122.67m-122.67 15.333h122.67m-122.67-61.333v61.333m15.34-61.333v61.333m15.33-61.333v61.333m15.33-61.333v61.333m15.34-61.333v61.333m-61.34-.001h122.67M1010.09 111h122.67m-122.67 15.333h122.67m-122.67 15.333h122.67M1010.09 157h122.67m-122.67-61.334V157m15.34-61.334V157m15.33-61.334V157m15.33-61.334V157m15.34-61.334V157m-61.34 0h122.67m-122.67 15.333h122.67m-122.67 15.334h122.67M1010.09 203h122.67m-122.67 15.333h122.67M1010.09 157v61.333M1025.43 157v61.333M1040.76 157v61.333M1056.09 157v61.333M1071.43 157v61.333m-61.34.001h122.67m-122.67 15.333h122.67M1010.09 249h122.67m-122.67 15.333h122.67m-122.67 15.334h122.67m-122.67-61.333v61.333m15.34-61.334v61.334m15.33-61.334v61.334m15.33-61.334v61.334m15.34-61.334v61.334m-61.34-.001h122.67M1010.09 295h122.67m-122.67 15.333h122.67m-122.67 15.334h122.67m-122.67-46.001V341m15.34-61.333V341m15.33-61.333V341m15.33-61.333V341m15.34-61.333V341"/></g></g><defs><filter id="b" width="763.216" height="730.216" x="638.392" y="-78.608" color-interpolation-filters="sRGB" filterUnits="userSpaceOnUse"><feFlood flood-opacity="0" result="BackgroundImageFix"/><feBlend in="SourceGraphic" in2="BackgroundImageFix" result="shape"/><feGaussianBlur result="effect1_foregroundBlur_278_9536" stdDeviation="113.304"/></filter><filter id="c" width="763.216" height="730.216" x="387.392" y="-8.608" color-interpolation-filters="sRGB" filterUnits="userSpaceOnUse"><feFlood flood-opacity="0" result="BackgroundImageFix"/><feBlend in="SourceGraphic" in2="BackgroundImageFix" result="shape"/><feGaussianBlur result="effect1_foregroundBlur_278_9536" stdDeviation="113.304"/></filter><filter id="d" width="254.046" height="254.046" x="878.467" y="213.467" color-interpolation-filters="sRGB" filterUnits="userSpaceOnUse"><feFlood flood-opacity="0" result="BackgroundImageFix"/><feBlend in="SourceGraphic" in2="BackgroundImageFix" result="shape"/><feGaussianBlur result="effect1_foregroundBlur_278_9536" stdDeviation="39.266"/></filter><radialGradient id="e" cx="0" cy="0" r="1" gradientTransform="rotate(-166.727 448.53 120.115) scale(400.704 939.298)" gradientUnits="userSpaceOnUse"><stop offset=".531" stop-color="#D9D9D9"/><stop offset="1" stop-color="#D9D9D9" stop-opacity="0"/></radialGradient></defs></svg>