<?xml version="1.0" encoding="UTF-8" standalone="no"?>
<!-- Uploaded to: SVG Repo, www.svgrepo.com, Generator: SVG Repo Mixer Tools -->

<svg
        fill="#000000"
        height="800px"
        width="800px"
        version="1.1"
        id="Capa_1"
        viewBox="0 0 49 49"
        xml:space="preserve"
        xmlns="http://www.w3.org/2000/svg">
<g
        id="g3">
	<g
            id="g2">
		<path
                d="M39.256,6.5H9.744C4.371,6.5,0,10.885,0,16.274v16.451c0,5.39,4.371,9.774,9.744,9.774h29.512    c5.373,0,9.744-4.385,9.744-9.774V16.274C49,10.885,44.629,6.5,39.256,6.5z M47,32.726c0,4.287-3.474,7.774-7.744,7.774H9.744    C5.474,40.5,2,37.012,2,32.726V16.274C2,11.988,5.474,8.5,9.744,8.5h29.512c4.27,0,7.744,3.488,7.744,7.774V32.726z"
                id="path1"/>
        <path
                d="M33.36,24.138l-13.855-8.115c-0.308-0.18-0.691-0.183-1.002-0.005S18,16.527,18,16.886v16.229    c0,0.358,0.192,0.69,0.502,0.868c0.154,0.088,0.326,0.132,0.498,0.132c0.175,0,0.349-0.046,0.505-0.137l13.855-8.113    c0.306-0.179,0.495-0.508,0.495-0.863S33.667,24.317,33.36,24.138z M20,31.37V18.63l10.876,6.371L20,31.37z"
                id="path2"/>
	</g>
</g>
    <path
            style="fill:#ffffff;stroke-width:0.955795"
            d="m 305.12834,555.38417 c -4.49362,-1.6035 -5.86848,-2.74172 -8.58155,-7.10452 l -2.16208,-3.47678 V 408.12425 271.44564 l 2.19871,-3.53605 c 3.74465,-6.02228 11.11869,-9.28831 17.06911,-7.56007 1.66063,0.48231 54.71846,31.13323 117.90629,68.11317 83.85102,49.0728 115.54317,68.08627 117.31602,70.38286 4.98581,6.45871 3.55653,16.73138 -3.01174,21.64615 -4.89635,3.66376 -227.30579,133.64517 -230.92881,134.96034 -4.20597,1.52679 -5.35948,1.5188 -9.80595,-0.0679 z m 114.76451,-97.08071 c 46.30946,-27.07287 84.07644,-49.65352 83.92661,-50.17921 -0.1936,-0.67926 -157.6114,-93.64773 -175.743,-103.79103 -1.58851,-0.88866 -1.67264,4.33415 -1.67264,103.8363 v 104.77202 l 4.645,-2.70733 c 2.55475,-1.48903 42.53456,-24.85787 88.84403,-51.93075 z"
            id="path3"
            transform="scale(0.06125)"/>
    <path
            style="fill:#ffffff;stroke-width:0.955795"
            d="M 138.69451,691.94465 C 85.965477,684.76459 41.188164,652.65166 17.339462,604.9125 8.6192564,587.45681 3.6898458,570.59062 1.4475484,550.53763 0.69022251,543.76483 0.47950767,498.08859 0.72442361,393.78734 1.1056684,231.42836 0.68180368,242.84936 7.1494731,220.66496 14.354765,195.95047 28.26635,172.54359 46.833931,153.89405 c 23.620966,-23.72524 50.960449,-38.1886 85.293419,-45.12264 7.86296,-1.58804 23.84418,-1.70925 261.65999,-1.98458 170.91294,-0.19786 256.33035,0.0304 262.64796,0.70195 66.47917,7.06644 121.07321,53.95425 137.88661,118.42319 5.23452,20.07115 5.20019,18.92169 5.20019,174.08803 0,155.16634 0.0343,154.01688 -5.20019,174.08803 -16.3631,62.74236 -69.2774,109.53062 -133.23875,117.81333 -10.56358,1.36794 -37.97823,1.51726 -262.36559,1.42907 -204.3233,-0.0803 -252.31422,-0.33608 -260.02306,-1.38578 z m 525.58267,-32.21503 c 52.356,-10.87426 91.67706,-50.61088 101.42947,-102.50142 1.70893,-9.09286 1.79634,-16.74362 1.79634,-157.2282 0,-140.48458 -0.0874,-148.13534 -1.79634,-157.2282 -4.66755,-24.83504 -15.76811,-46.60863 -33.01894,-64.76617 -18.51068,-19.48362 -41.71078,-32.22047 -68.71426,-37.72411 -7.81601,-1.593 -23.16132,-1.69132 -263.97345,-1.69132 -240.81213,0 -256.15744,0.0983 -263.97345,1.69132 -24.97508,5.09023 -46.119086,15.98608 -63.949957,32.95447 -22.370285,21.28823 -35.317164,47.32323 -39.082222,78.59079 -0.622829,5.1724 -0.968512,58.88104 -0.956595,148.62605 0.01953,147.12858 0.109337,150.70392 4.165771,165.85541 9.197519,34.35435 32.227366,63.77713 62.721184,80.13216 13.996379,7.50681 30.027159,12.6374 44.923719,14.37767 3.96466,0.46317 120.12733,0.76186 259.97473,0.66849 231.53253,-0.1546 253.45112,-0.30245 260.454,-1.75694 z"
            id="path4"
            transform="scale(0.06125)"/></svg>
